<svg width="147" height="26" viewBox="0 0 147 26" fill="none" xmlns="http://www.w3.org/2000/svg">
<path d="M13.1159 19.4333L18.0753 22.5821C18.7149 22.9855 19.502 22.3853 19.3151 21.6473L17.8785 15.9991C17.8396 15.8426 17.8458 15.6782 17.8963 15.525C17.9468 15.3718 18.0395 15.236 18.1638 15.1332L22.6115 11.4236C23.192 10.9414 22.8968 9.96726 22.1392 9.91806L16.3336 9.54414C16.1752 9.53492 16.0229 9.47976 15.8953 9.3854C15.7678 9.29104 15.6704 9.16156 15.6153 9.01278L13.4505 3.56146C13.3932 3.40392 13.2888 3.26784 13.1515 3.17167C13.0142 3.07551 12.8506 3.02393 12.683 3.02393C12.5153 3.02393 12.3518 3.07551 12.2145 3.17167C12.0771 3.26784 11.9728 3.40392 11.9155 3.56146L9.75067 9.01278C9.69549 9.16156 9.59818 9.29104 9.47061 9.3854C9.34305 9.47976 9.19076 9.53492 9.03235 9.54414L3.22679 9.91806C2.46911 9.96726 2.17392 10.9414 2.75447 11.4236L7.20212 15.1332C7.32644 15.236 7.41918 15.3718 7.46967 15.525C7.52015 15.6782 7.52633 15.8426 7.48748 15.9991L6.15909 21.234C5.93277 22.1196 6.87741 22.8379 7.63508 22.3557L12.25 19.4333C12.3794 19.351 12.5296 19.3073 12.683 19.3073C12.8363 19.3073 12.9865 19.351 13.1159 19.4333Z" fill="#90E051"/>
<path d="M43.3443 19.4333L48.3036 22.5821C48.9432 22.9855 49.7304 22.3853 49.5434 21.6473L48.1068 15.9991C48.0679 15.8426 48.0741 15.6782 48.1246 15.525C48.1751 15.3718 48.2678 15.236 48.3921 15.1332L52.8398 11.4236C53.4204 10.9414 53.1252 9.96726 52.3675 9.91806L46.5619 9.54414C46.4035 9.53492 46.2512 9.47976 46.1237 9.3854C45.9961 9.29104 45.8988 9.16156 45.8436 9.01278L43.6788 3.56146C43.6215 3.40392 43.5171 3.26784 43.3798 3.17167C43.2425 3.07551 43.0789 3.02393 42.9113 3.02393C42.7437 3.02393 42.5801 3.07551 42.4428 3.17167C42.3055 3.26784 42.2011 3.40392 42.1438 3.56146L39.979 9.01278C39.9238 9.16156 39.8265 9.29104 39.6989 9.3854C39.5714 9.47976 39.4191 9.53492 39.2607 9.54414L33.4551 9.91806C32.6974 9.96726 32.4022 10.9414 32.9828 11.4236L37.4305 15.1332C37.5548 15.236 37.6475 15.3718 37.698 15.525C37.7485 15.6782 37.7547 15.8426 37.7158 15.9991L36.3874 21.234C36.1611 22.1196 37.1057 22.8379 37.8634 22.3557L42.4783 19.4333C42.6078 19.351 42.7579 19.3073 42.9113 19.3073C43.0647 19.3073 43.2148 19.351 43.3443 19.4333Z" fill="#90E051"/>
<path d="M73.5725 19.4333L78.5319 22.5821C79.1715 22.9855 79.9586 22.3853 79.7717 21.6473L78.3351 15.9991C78.2962 15.8426 78.3024 15.6782 78.3529 15.525C78.4034 15.3718 78.4961 15.236 78.6204 15.1332L83.0681 11.4236C83.6486 10.9414 83.3534 9.96726 82.5958 9.91806L76.7902 9.54414C76.6318 9.53492 76.4795 9.47976 76.3519 9.3854C76.2244 9.29104 76.127 9.16156 76.0719 9.01278L73.9071 3.56146C73.8498 3.40392 73.7454 3.26784 73.6081 3.17167C73.4708 3.07551 73.3072 3.02393 73.1396 3.02393C72.9719 3.02393 72.8084 3.07551 72.6711 3.17167C72.5338 3.26784 72.4294 3.40392 72.3721 3.56146L70.2073 9.01278C70.1521 9.16156 70.0548 9.29104 69.9272 9.3854C69.7997 9.47976 69.6474 9.53492 69.489 9.54414L63.6834 9.91806C62.9257 9.96726 62.6305 10.9414 63.2111 11.4236L67.6587 15.1332C67.783 15.236 67.8758 15.3718 67.9263 15.525C67.9768 15.6782 67.9829 15.8426 67.9441 15.9991L66.6157 21.234C66.3894 22.1196 67.334 22.8379 68.0917 22.3557L72.7066 19.4333C72.836 19.351 72.9862 19.3073 73.1396 19.3073C73.2929 19.3073 73.4431 19.351 73.5725 19.4333Z" fill="#90E051"/>
<path d="M103.801 19.4333L108.76 22.5821C109.4 22.9855 110.187 22.3853 110 21.6473L108.563 15.9991C108.525 15.8426 108.531 15.6782 108.581 15.525C108.632 15.3718 108.724 15.236 108.849 15.1332L113.296 11.4236C113.877 10.9414 113.582 9.96726 112.824 9.91806L107.019 9.54414C106.86 9.53492 106.708 9.47976 106.58 9.3854C106.453 9.29104 106.355 9.16156 106.3 9.01278L104.135 3.56146C104.078 3.40392 103.974 3.26784 103.836 3.17167C103.699 3.07551 103.536 3.02393 103.368 3.02393C103.2 3.02393 103.037 3.07551 102.899 3.17167C102.762 3.26784 102.658 3.40392 102.6 3.56146L100.436 9.01278C100.38 9.16156 100.283 9.29104 100.156 9.3854C100.028 9.47976 99.8757 9.53492 99.7173 9.54414L93.9117 9.91806C93.1541 9.96726 92.8589 10.9414 93.4394 11.4236L97.8871 15.1332C98.0114 15.236 98.1041 15.3718 98.1546 15.525C98.2051 15.6782 98.2113 15.8426 98.1724 15.9991L96.844 21.234C96.6177 22.1196 97.5623 22.8379 98.32 22.3557L102.935 19.4333C103.064 19.351 103.215 19.3073 103.368 19.3073C103.521 19.3073 103.671 19.351 103.801 19.4333Z" fill="#90E051"/>
<path d="M134.029 19.4333L138.988 22.5821C139.628 22.9855 140.415 22.3853 140.228 21.6473L138.792 15.9991C138.753 15.8426 138.759 15.6782 138.809 15.525C138.86 15.3718 138.953 15.236 139.077 15.1332L143.525 11.4236C144.105 10.9414 143.81 9.96726 143.052 9.91806L137.247 9.54414C137.088 9.53492 136.936 9.47976 136.809 9.3854C136.681 9.29104 136.584 9.16156 136.528 9.01278L134.364 3.56146C134.306 3.40392 134.202 3.26784 134.065 3.17167C133.927 3.07551 133.764 3.02393 133.596 3.02393C133.429 3.02393 133.265 3.07551 133.128 3.17167C132.99 3.26784 132.886 3.40392 132.829 3.56146L130.664 9.01278C130.609 9.16156 130.511 9.29104 130.384 9.3854C130.256 9.47976 130.104 9.53492 129.946 9.54414L124.14 9.91806C123.382 9.96726 123.087 10.9414 123.668 11.4236L128.115 15.1332C128.24 15.236 128.332 15.3718 128.383 15.525C128.433 15.6782 128.44 15.8426 128.401 15.9991L127.072 21.234C126.846 22.1196 127.791 22.8379 128.548 22.3557L133.163 19.4333C133.293 19.351 133.443 19.3073 133.596 19.3073C133.75 19.3073 133.9 19.351 134.029 19.4333Z" fill="#90E051"/>
</svg>
